<svg xmlns="http://www.w3.org/2000/svg" viewBox="0 0 320 320" width="319px" height="319px" preserveAspectRatio="none">
  <g transform="matrix(1, 0, 0, 1, -227, 89)">
    <rect width="250" height="250" style="stroke: rgb(0, 0, 0); fill: rgb(18, 24, 33); transform-origin: 394.378px 56.319px 0px;" x="269.378" y="-68.681" rx="125" ry="125" transform="matrix(0, 1, -1, 0, -6.180215, -7.318991)"></rect>
    <path d="M 379.073 224.36 C 361.766 214.722 345.784 203.857 331.622 192.153 C 318.445 181.237 299.858 161.175 289.483 146.571 C 279.696 132.852 269.176 112.199 265.733 100.103 C 265.388 98.874 264.946 97.35 264.701 96.661 C 262.486 90.17 259.734 76.403 258.406 64.946 C 256.833 51.423 256.438 39.72 256.142 -3.257 C 255.897 -41.906 255.897 -43.921 256.733 -44.167 C 257.224 -44.315 259.488 -44.855 261.799 -45.445 C 264.11 -45.986 267.649 -46.922 269.667 -47.462 C 271.682 -48.001 274.043 -48.692 274.829 -48.888 C 288.547 -52.674 321.493 -63.345 336.293 -68.803 C 338.753 -69.687 344.161 -71.705 348.34 -73.229 C 355.913 -76.031 360.192 -77.654 375.139 -83.553 C 379.467 -85.226 383.499 -86.8 384.088 -86.946 C 384.826 -87.192 387.089 -86.604 390.974 -85.127 C 411.183 -77.458 416.297 -75.539 423.574 -72.883 C 439.998 -66.934 463.108 -59.214 474.713 -55.773 C 496.152 -49.429 514.297 -44.462 516.116 -44.462 C 516.952 -44.462 517.001 -43.33 517.001 -21.449 C 517.001 30.082 515.034 61.405 510.608 80.681 C 507.904 92.335 506.576 96.907 502.889 107.233 C 493.448 133.442 474.123 161.913 452.045 182.22 C 448.947 185.073 446.341 187.532 446.194 187.679 C 444.62 189.449 431.786 199.381 422.345 206.216 C 420.28 207.691 410.101 214.231 407.593 215.657 C 406.806 216.149 403.513 218.115 400.316 220.034 C 397.119 221.952 394.415 223.525 394.317 223.525 C 394.218 223.525 392.448 224.508 390.433 225.738 C 388.368 226.966 386.4 227.951 386.056 227.951 C 385.712 227.951 382.614 226.327 379.073 224.36 Z M 392.35 163.83 C 393.186 162.945 396.824 158.913 400.463 154.881 C 418.214 135.261 430.065 119.822 440.145 103.053 C 448.21 89.629 452.831 78.418 456.274 63.962 C 458.733 53.488 459.224 49.407 459.224 37.162 C 459.224 27.329 459.077 25.559 458.044 21.182 C 454.209 4.562 446.832 -8.518 435.768 -18.302 C 425.442 -27.399 414.871 -32.119 399.529 -34.431 C 391.367 -35.661 375.139 -35.12 367.272 -33.397 C 358.273 -31.432 352.57 -29.317 346.08 -25.629 C 330.443 -16.729 318.937 0.973 315.149 22.167 C 314.314 26.788 314.166 40.015 314.903 44.343 C 317.313 58.012 322.23 68.092 331.13 77.631 C 340.031 87.122 350.8 93.269 363.831 96.219 C 368.206 97.251 385.662 97.104 391.12 96.022 C 397.07 94.842 398.939 94.4 401.594 93.563 C 402.872 93.17 403.906 92.924 403.906 93.072 C 403.906 93.416 398.939 100.497 395.89 104.528 C 393.137 108.167 386.891 115.838 382.515 120.953 C 375.533 129.115 360.29 146.768 358.224 149.03 C 356.995 150.406 354.536 153.159 352.766 155.176 C 348.145 160.486 344.702 164.273 344.309 164.42 C 344.063 164.519 343.915 164.863 343.915 165.157 C 343.915 165.601 349.768 165.698 367.37 165.601 L 390.874 165.502 L 392.35 163.83 Z" style="fill: rgb(238, 120, 37);"></path>
    <path d="M 376.615 63.421 C 363.093 60.766 354.734 49.063 354.734 32.837 C 354.734 23.886 357.536 16.805 363.29 11.102 C 369.878 4.611 377.992 1.268 387.236 1.268 C 398.692 1.268 409.806 6.972 414.33 15.134 C 419.395 24.329 419.936 36.376 415.657 45.867 C 415.165 47.047 414.724 48.079 414.724 48.227 C 414.724 48.423 413.837 49.85 412.756 51.472 C 406.265 61.012 390.58 66.174 376.615 63.421 Z" style="fill: rgb(238, 120, 37);"></path>
  </g>
</svg>
